<!-- <svg xmlns="http://www.w3.org/2000/svg" viewBox="0 0 384 512">!Font Awesome Free 6.5.1 by @fontawesome - https://fontawesome.com License - https://fontawesome.com/license/free Copyright 2024 Fonticons, Inc.<path fill="#98fb98" d="M215.7 499.2C267 435 384 279.4 384 192C384 86 298 0 192 0S0 86 0 192c0 87.4 117 243 168.3 307.2c12.3 15.3 35.1 15.3 47.4 0zM192 128a64 64 0 1 1 0 128 64 64 0 1 1 0-128z"/></svg> -->
 <svg xmlns="http://www.w3.org/2000/svg" width="1em" height="1em" viewBox="0 0 24 24">
	<g fill="#0a3711" fill-opacity="0">
		<path stroke="#0a3711" stroke-linecap="round" stroke-width="2.2" d="M12 20.5C12 20.5 6 13.5 6 9C6 5.68629 8.68629 3 12 3C15.3137 3 18 5.68629 18 9C18 13.5 12 20.5 12 20.5z">
			<animate fill="freeze" attributeName="d" dur="0.4s" keyTimes="0;0.7;1" values="M12 20.5C12 20.5 11 19 11 18C11 17.5 11.5 17 12 17C12.5 17 13 17.5 13 18C13 19 12 20.5 12 20.5z;M12 20.5C12 20.5 5 13 5 8C5 4.5 8 1 12 1C16 1 19 4.5 19 8C19 13 12 20.5 12 20.5z;M12 20.5C12 20.5 6 13.5 6 9C6 5.68629 8.68629 3 12 3C15.3137 3 18 5.68629 18 9C18 13.5 12 20.5 12 20.5z" />
			<animate fill="freeze" attributeName="fill-opacity" begin="0.5s" dur="0.15s" values="0;0.35" />
		</path>
		<circle cx="12" cy="9" r="2.5">
			<animate fill="freeze" attributeName="fill-opacity" begin="0.5s" dur="0.4s" values="0;1" />
		</circle>
	</g>
</svg>